<?xml version="1.0" standalone="no"?><!DOCTYPE svg PUBLIC "-//W3C//DTD SVG 1.1//EN" "http://www.w3.org/Graphics/SVG/1.1/DTD/svg11.dtd"><svg t="1651483129096" class="icon" viewBox="0 0 1024 1024" version="1.1" xmlns="http://www.w3.org/2000/svg" p-id="1424" xmlns:xlink="http://www.w3.org/1999/xlink" width="200" height="200"><defs><style type="text/css">@font-face { font-family: feedback-iconfont; src: url("//at.alicdn.com/t/font_1031158_u69w8yhxdu.woff2?t=1630033759944") format("woff2"), url("//at.alicdn.com/t/font_1031158_u69w8yhxdu.woff?t=1630033759944") format("woff"), url("//at.alicdn.com/t/font_1031158_u69w8yhxdu.ttf?t=1630033759944") format("truetype"); }
</style></defs><path d="M981.333333 533.333333a21.333333 21.333333 0 0 1-21.333333 21.333334H448a21.333333 21.333333 0 0 1 0-42.666667h512a21.333333 21.333333 0 0 1 21.333333 21.333333zM533.333333 170.666667h426.666667a21.333333 21.333333 0 0 0 0-42.666667H533.333333a21.333333 21.333333 0 0 0 0 42.666667z m426.666667 725.333333H64a21.333333 21.333333 0 0 0 0 42.666667h896a21.333333 21.333333 0 0 0 0-42.666667zM56.046667 663.333333C47.166667 649.333333 42.666667 634.3 42.666667 618.666667s4.5-30.666667 13.38-44.666667c8.053333-12.666667 19.333333-23.946667 33.613333-33.44C117.333333 522.146667 153.646667 512 192 512s74.7 10.146667 102.34 28.58c1.48 0.98 2.913333 2 4.326667 3.006667V64a21.333333 21.333333 0 0 1 42.626666-1.266667c1.073333 18.04 5.806667 52.666667 25.446667 82.08 7.713333 11.553333 16.846667 21.006667 27.153333 28.133334 13.853333 5.513333 26.453333 14.113333 37.493334 25.606666 22.813333 23.753333 32.966667 53.493333 37.466666 74.266667a21.333333 21.333333 0 0 1-41.706666 9.026667c-2.726667-12.586667-9.8-36.313333-26.533334-53.733334C393.433333 220.666667 385.373333 215.226667 376.666667 212a21.18 21.18 0 0 1-4.36-2.186667A140.893333 140.893333 0 0 1 341.333333 182v436.666667c0 15.633333-4.5 30.666667-13.38 44.666666-8.053333 12.666667-19.333333 23.946667-33.613333 33.44-27.64 18.433333-64 28.58-102.34 28.58s-74.666667-10.146667-102.34-28.58C75.406667 687.26 64.1 676 56.046667 663.333333zM85.333333 618.666667c0 20.82 17.54 35.62 28 42.586666 20.706667 13.806667 48.666667 21.413333 78.666667 21.413334s57.966667-7.606667 78.666667-21.413334c10.453333-6.966667 28-21.766667 28-42.586666s-17.54-35.62-28-42.586667C250 562.273333 222 554.666667 192 554.666667s-57.966667 7.606667-78.666667 21.413333c-10.46 6.966667-28 21.766667-28 42.586667z" fill="#707070" p-id="1425"></path></svg>