<?xml version="1.0" standalone="no"?><!DOCTYPE svg PUBLIC "-//W3C//DTD SVG 1.1//EN" "http://www.w3.org/Graphics/SVG/1.1/DTD/svg11.dtd"><svg t="1651484895190" class="icon" viewBox="0 0 1024 1024" version="1.1" xmlns="http://www.w3.org/2000/svg" p-id="2898" xmlns:xlink="http://www.w3.org/1999/xlink" width="200" height="200"><defs><style type="text/css">@font-face { font-family: feedback-iconfont; src: url("//at.alicdn.com/t/font_1031158_u69w8yhxdu.woff2?t=1630033759944") format("woff2"), url("//at.alicdn.com/t/font_1031158_u69w8yhxdu.woff?t=1630033759944") format("woff"), url("//at.alicdn.com/t/font_1031158_u69w8yhxdu.ttf?t=1630033759944") format("truetype"); }
</style></defs><path d="M803.126667 981.333333a21.253333 21.253333 0 0 1-9.926667-2.453333L512 831.046667l-281.2 147.833333a21.333333 21.333333 0 0 1-30.953333-22.486667l53.706666-313.12L26.053333 421.52a21.333333 21.333333 0 0 1 11.826667-36.386667l314.386667-45.686666L492.866667 54.56a21.333333 21.333333 0 0 1 38.266666 0l140.6 284.886667 314.386667 45.686666a21.333333 21.333333 0 0 1 11.826667 36.386667l-227.5 221.753333 53.706666 313.12a21.333333 21.333333 0 0 1-21.026666 24.94zM86.786667 421.14L291.333333 620.546667a21.333333 21.333333 0 0 1 6.14 18.886666l-48.266666 281.566667 252.866666-132.94a21.333333 21.333333 0 0 1 19.853334 0l252.866666 132.94-48.293333-281.566667a21.333333 21.333333 0 0 1 6.14-18.886666l204.573333-199.406667-282.72-41.086667a21.333333 21.333333 0 0 1-16.06-11.666666L512 112.206667 385.566667 368.386667a21.333333 21.333333 0 0 1-16.06 11.666666z" fill="#707070" p-id="2899"></path></svg>