<?xml version="1.0" standalone="no"?><!DOCTYPE svg PUBLIC "-//W3C//DTD SVG 1.1//EN" "http://www.w3.org/Graphics/SVG/1.1/DTD/svg11.dtd"><svg t="1651635353003" class="icon" viewBox="0 0 1024 1024" version="1.1" xmlns="http://www.w3.org/2000/svg" p-id="7101" xmlns:xlink="http://www.w3.org/1999/xlink" width="200" height="200"><defs><style type="text/css">@font-face { font-family: feedback-iconfont; src: url("//at.alicdn.com/t/font_1031158_u69w8yhxdu.woff2?t=1630033759944") format("woff2"), url("//at.alicdn.com/t/font_1031158_u69w8yhxdu.woff?t=1630033759944") format("woff"), url("//at.alicdn.com/t/font_1031158_u69w8yhxdu.ttf?t=1630033759944") format("truetype"); }
</style></defs><path d="M533.333333 981.333333a447.806667 447.806667 0 0 1-362.666666-184.9V917.333333a21.333333 21.333333 0 0 1-42.666667 0v-213.333333a21.333333 21.333333 0 0 1 21.333333-21.333333h213.333334a21.333333 21.333333 0 0 1 0 42.666666H176.246667c70.893333 132 206.193333 213.333333 357.086666 213.333334 223.5 0 405.333333-181.833333 405.333334-405.333334a21.333333 21.333333 0 0 1 42.666666 0 447.64 447.64 0 0 1-448 448zM106.666667 554.666667a21.333333 21.333333 0 0 1-21.333334-21.333334 448 448 0 0 1 810.666667-263.106666V149.333333a21.333333 21.333333 0 0 1 42.666667 0v213.333334a21.333333 21.333333 0 0 1-21.333334 21.333333h-213.333333a21.333333 21.333333 0 0 1 0-42.666667h186.42C819.526667 209.333333 684.226667 128 533.333333 128c-223.5 0-405.333333 181.833333-405.333333 405.333333a21.333333 21.333333 0 0 1-21.333333 21.333334z" fill="#707070" p-id="7102"></path></svg>