<?xml version="1.0" standalone="no"?><!DOCTYPE svg PUBLIC "-//W3C//DTD SVG 1.1//EN" "http://www.w3.org/Graphics/SVG/1.1/DTD/svg11.dtd"><svg t="1651582010517" class="icon" viewBox="0 0 1024 1024" version="1.1" xmlns="http://www.w3.org/2000/svg" p-id="9730" xmlns:xlink="http://www.w3.org/1999/xlink" width="200" height="200"><defs><style type="text/css">@font-face { font-family: feedback-iconfont; src: url("//at.alicdn.com/t/font_1031158_u69w8yhxdu.woff2?t=1630033759944") format("woff2"), url("//at.alicdn.com/t/font_1031158_u69w8yhxdu.woff?t=1630033759944") format("woff"), url("//at.alicdn.com/t/font_1031158_u69w8yhxdu.ttf?t=1630033759944") format("truetype"); }
</style></defs><path d="M842.666667 981.333333H181.333333a53.393333 53.393333 0 0 1-53.333333-53.333333V277.333333a21.333333 21.333333 0 0 1 42.666667 0v650.666667a10.666667 10.666667 0 0 0 10.666666 10.666667h661.333334a10.666667 10.666667 0 0 0 10.666666-10.666667V277.333333a21.333333 21.333333 0 0 1 42.666667 0v650.666667a53.393333 53.393333 0 0 1-53.333333 53.333333z m-181.333334-128a21.333333 21.333333 0 0 1-21.333333-21.333333V362.666667a21.333333 21.333333 0 0 1 42.666667 0v469.333333a21.333333 21.333333 0 0 1-21.333334 21.333333z m-298.666666 0a21.333333 21.333333 0 0 1-21.333334-21.333333V362.666667a21.333333 21.333333 0 0 1 42.666667 0v469.333333a21.333333 21.333333 0 0 1-21.333333 21.333333z m554.666666-682.666666H106.666667a21.333333 21.333333 0 0 1 0-42.666667h192v-32a53.393333 53.393333 0 0 1 53.333333-53.333333h320a53.393333 53.393333 0 0 1 53.333333 53.333333v32h192a21.333333 21.333333 0 0 1 0 42.666667z m-576-42.666667h341.333334v-32a10.666667 10.666667 0 0 0-10.666667-10.666667H352a10.666667 10.666667 0 0 0-10.666667 10.666667z" fill="#707070" p-id="9731"></path></svg>