<?xml version="1.0" standalone="no"?><!DOCTYPE svg PUBLIC "-//W3C//DTD SVG 1.1//EN" "http://www.w3.org/Graphics/SVG/1.1/DTD/svg11.dtd"><svg t="1651483018749" class="icon" viewBox="0 0 1024 1024" version="1.1" xmlns="http://www.w3.org/2000/svg" p-id="885" xmlns:xlink="http://www.w3.org/1999/xlink" width="200" height="200"><defs><style type="text/css">@font-face { font-family: feedback-iconfont; src: url("//at.alicdn.com/t/font_1031158_u69w8yhxdu.woff2?t=1630033759944") format("woff2"), url("//at.alicdn.com/t/font_1031158_u69w8yhxdu.woff?t=1630033759944") format("woff"), url("//at.alicdn.com/t/font_1031158_u69w8yhxdu.ttf?t=1630033759944") format("truetype"); }
</style></defs><path d="M512 42.667C252.793 42.667 42.667 252.793 42.667 512S252.793 981.333 512 981.333 981.333 771.207 981.333 512 771.207 42.667 512 42.667z m0 896C276.36 938.667 85.333 747.64 85.333 512S276.36 85.333 512 85.333 938.667 276.36 938.667 512 747.64 938.667 512 938.667z m-74.667-213.38A53.373 53.373 0 0 1 384 671.953V352.067A53.333 53.333 0 0 1 467.373 308L702 467.933a53.333 53.333 0 0 1 0 88.134L467.373 716a53.287 53.287 0 0 1-30.04 9.287z m0.08-383.934a11.093 11.093 0 0 0-5.08 1.28 10.447 10.447 0 0 0-5.666 9.434v319.866a10.667 10.667 0 0 0 16.666 8.82L678 520.813a10.667 10.667 0 0 0 0-17.626L443.333 343.253a10.313 10.313 0 0 0-5.906-1.92z" p-id="886" fill="#707070"></path></svg>