<?xml version="1.0" standalone="no"?><!DOCTYPE svg PUBLIC "-//W3C//DTD SVG 1.1//EN" "http://www.w3.org/Graphics/SVG/1.1/DTD/svg11.dtd"><svg t="1651483043040" class="icon" viewBox="0 0 1024 1024" version="1.1" xmlns="http://www.w3.org/2000/svg" p-id="1462" xmlns:xlink="http://www.w3.org/1999/xlink" width="200" height="200"><defs><style type="text/css">@font-face { font-family: feedback-iconfont; src: url("//at.alicdn.com/t/font_1031158_u69w8yhxdu.woff2?t=1630033759944") format("woff2"), url("//at.alicdn.com/t/font_1031158_u69w8yhxdu.woff?t=1630033759944") format("woff"), url("//at.alicdn.com/t/font_1031158_u69w8yhxdu.ttf?t=1630033759944") format("truetype"); }
</style></defs><path d="M512 42.667C252.793 42.667 42.667 252.793 42.667 512S252.793 981.333 512 981.333 981.333 771.207 981.333 512 771.207 42.667 512 42.667z m0 896C276.36 938.667 85.333 747.64 85.333 512S276.36 85.333 512 85.333 938.667 276.36 938.667 512 747.64 938.667 512 938.667z m106.667-213.334A21.333 21.333 0 0 1 597.333 704V320A21.333 21.333 0 0 1 640 320v384a21.333 21.333 0 0 1-21.333 21.333z m-213.334 0A21.333 21.333 0 0 1 384 704V320a21.333 21.333 0 0 1 42.667 0v384a21.333 21.333 0 0 1-21.334 21.333z" fill="#707070" p-id="1463"></path></svg>