<?xml version="1.0" standalone="no"?><!DOCTYPE svg PUBLIC "-//W3C//DTD SVG 1.1//EN" "http://www.w3.org/Graphics/SVG/1.1/DTD/svg11.dtd"><svg t="1651483114600" class="icon" viewBox="0 0 1024 1024" version="1.1" xmlns="http://www.w3.org/2000/svg" p-id="1161" xmlns:xlink="http://www.w3.org/1999/xlink" width="200" height="200"><defs><style type="text/css">@font-face { font-family: feedback-iconfont; src: url("//at.alicdn.com/t/font_1031158_u69w8yhxdu.woff2?t=1630033759944") format("woff2"), url("//at.alicdn.com/t/font_1031158_u69w8yhxdu.woff?t=1630033759944") format("woff"), url("//at.alicdn.com/t/font_1031158_u69w8yhxdu.ttf?t=1630033759944") format("truetype"); }
</style></defs><path d="M512 42.666667c259.206667 0 469.333333 210.126667 469.333333 469.333333s-210.126667 469.333333-469.333333 469.333333S42.666667 771.206667 42.666667 512 252.793333 42.666667 512 42.666667z m0 896c235.64 0 426.666667-191.026667 426.666667-426.666667s-191.026667-426.666667-426.666667-426.666667-426.666667 191.026667-426.666667 426.666667 191.026667 426.666667 426.666667 426.666667z m160-213.38a53.373333 53.373333 0 0 0 53.333333-53.333334V352.066667A53.333333 53.333333 0 0 0 641.96 308L407.333333 467.933333a53.333333 53.333333 0 0 0 0 88.133334l234.666667 159.94a53.286667 53.286667 0 0 0 30 9.28z m-0.08-383.933334a11.093333 11.093333 0 0 1 5.08 1.28 10.446667 10.446667 0 0 1 5.666667 9.433334v319.866666a10.666667 10.666667 0 0 1-16.666667 8.82L431.333333 520.813333a10.666667 10.666667 0 0 1 0-17.626666l234.666667-159.933334a10.313333 10.313333 0 0 1 5.906667-1.92zM320 725.333333a21.333333 21.333333 0 0 0 21.333333-21.333333V320a21.333333 21.333333 0 0 0-42.666666 0v384a21.333333 21.333333 0 0 0 21.333333 21.333333z" fill="#707070" p-id="1162"></path></svg>