<?xml version="1.0" standalone="no"?><!DOCTYPE svg PUBLIC "-//W3C//DTD SVG 1.1//EN" "http://www.w3.org/Graphics/SVG/1.1/DTD/svg11.dtd"><svg t="1651485158555" class="icon" viewBox="0 0 1024 1024" version="1.1" xmlns="http://www.w3.org/2000/svg" p-id="5905" xmlns:xlink="http://www.w3.org/1999/xlink" width="200" height="200"><defs><style type="text/css">@font-face { font-family: feedback-iconfont; src: url("//at.alicdn.com/t/font_1031158_u69w8yhxdu.woff2?t=1630033759944") format("woff2"), url("//at.alicdn.com/t/font_1031158_u69w8yhxdu.woff?t=1630033759944") format("woff"), url("//at.alicdn.com/t/font_1031158_u69w8yhxdu.ttf?t=1630033759944") format("truetype"); }
</style></defs><path d="M85.333333 320a21.333333 21.333333 0 0 1 21.333334-21.333333h759.166666l-134.253333-134.246667a21.333333 21.333333 0 0 1 30.173333-30.173333l170.666667 170.666666a21.333333 21.333333 0 0 1 0 30.173334l-170.666667 170.666666a21.333333 21.333333 0 0 1-30.173333-30.173333L865.833333 341.333333H106.666667a21.333333 21.333333 0 0 1-21.333334-21.333333z m832 362.666667H158.166667l134.253333-134.246667a21.333333 21.333333 0 0 0-30.173333-30.173333l-170.666667 170.666666a21.333333 21.333333 0 0 0 0 30.173334l170.666667 170.666666a21.333333 21.333333 0 1 0 30.173333-30.173333L158.166667 725.333333H917.333333a21.333333 21.333333 0 0 0 0-42.666666z" fill="#707070" p-id="5906"></path></svg>