<?xml version="1.0" standalone="no"?><!DOCTYPE svg PUBLIC "-//W3C//DTD SVG 1.1//EN" "http://www.w3.org/Graphics/SVG/1.1/DTD/svg11.dtd"><svg t="1651485269320" class="icon" viewBox="0 0 1024 1024" version="1.1" xmlns="http://www.w3.org/2000/svg" p-id="953" xmlns:xlink="http://www.w3.org/1999/xlink" width="200" height="200"><defs><style type="text/css">@font-face { font-family: feedback-iconfont; src: url("//at.alicdn.com/t/font_1031158_u69w8yhxdu.woff2?t=1630033759944") format("woff2"), url("//at.alicdn.com/t/font_1031158_u69w8yhxdu.woff?t=1630033759944") format("woff"), url("//at.alicdn.com/t/font_1031158_u69w8yhxdu.ttf?t=1630033759944") format("truetype"); }
</style></defs><path d="M224 938.713a53.58 53.58 0 0 1-53.333-53.433V138.72a53.333 53.333 0 0 1 80.886-45.667l618.667 373.28a53.333 53.333 0 0 1 0 91.334l-618.667 373.28A53.16 53.16 0 0 1 224 938.713z m0.047-810.666a10.98 10.98 0 0 0-5.334 1.42 10.467 10.467 0 0 0-5.38 9.253v746.56a10.667 10.667 0 0 0 16.18 9.133l618.667-373.28a10.667 10.667 0 0 0 0-18.266l-618.667-373.28a10.387 10.387 0 0 0-5.446-1.587z" fill="#5C5C66" p-id="954"></path></svg>