<?xml version="1.0" standalone="no"?><!DOCTYPE svg PUBLIC "-//W3C//DTD SVG 1.1//EN" "http://www.w3.org/Graphics/SVG/1.1/DTD/svg11.dtd"><svg t="1651483137150" class="icon" viewBox="0 0 1024 1024" version="1.1" xmlns="http://www.w3.org/2000/svg" p-id="1687" xmlns:xlink="http://www.w3.org/1999/xlink" width="200" height="200"><defs><style type="text/css">@font-face { font-family: feedback-iconfont; src: url("//at.alicdn.com/t/font_1031158_u69w8yhxdu.woff2?t=1630033759944") format("woff2"), url("//at.alicdn.com/t/font_1031158_u69w8yhxdu.woff?t=1630033759944") format("woff"), url("//at.alicdn.com/t/font_1031158_u69w8yhxdu.ttf?t=1630033759944") format("truetype"); }
</style></defs><path d="M981.333333 917.333333a21.333333 21.333333 0 0 1-21.333333 21.333334H64a21.333333 21.333333 0 0 1 0-42.666667h896a21.333333 21.333333 0 0 1 21.333333 21.333333zM661.333333 170.666667h298.666667a21.333333 21.333333 0 0 0 0-42.666667H661.333333a21.333333 21.333333 0 0 0 0 42.666667z m0 384h298.666667a21.333333 21.333333 0 0 0 0-42.666667H661.333333a21.333333 21.333333 0 0 0 0 42.666667zM512.413333 127.586667a143.333333 143.333333 0 0 1 42.253334 102c0 35.653333-2.813333 69.166667-37.406667 118.366666-33.333333 47.4-96.486667 109.586667-204.78 201.633334a21.333333 21.333333 0 0 1-27.626667 0C176.56 457.54 113.4 395.333333 80.073333 347.953333 45.48 298.753333 42.666667 265.24 42.666667 229.586667a144.266667 144.266667 0 0 1 256-91.246667 144.266667 144.266667 0 0 1 213.746666-10.753333z m-0.413333 102c0-56-45.573333-101.586667-101.586667-101.586667a101.933333 101.933333 0 0 0-92.36 59.22 21.333333 21.333333 0 0 1-38.773333 0A101.933333 101.933333 0 0 0 186.92 128C130.906667 128 85.333333 173.573333 85.333333 229.586667c0 31.206667 2.06 54.6 29.64 93.82C144.753333 365.766667 201.686667 422.173333 298.666667 505.286667c96.98-83.113333 153.913333-139.52 183.693333-181.88C509.94 284.186667 512 260.793333 512 229.586667z" fill="#707070" p-id="1688"></path></svg>