<?xml version="1.0" standalone="no"?><!DOCTYPE svg PUBLIC "-//W3C//DTD SVG 1.1//EN" "http://www.w3.org/Graphics/SVG/1.1/DTD/svg11.dtd"><svg t="1651654588033" class="icon" viewBox="0 0 1024 1024" version="1.1" xmlns="http://www.w3.org/2000/svg" p-id="1009" xmlns:xlink="http://www.w3.org/1999/xlink" width="200" height="200"><defs><style type="text/css">@font-face { font-family: feedback-iconfont; src: url("//at.alicdn.com/t/font_1031158_u69w8yhxdu.woff2?t=1630033759944") format("woff2"), url("//at.alicdn.com/t/font_1031158_u69w8yhxdu.woff?t=1630033759944") format("woff"), url("//at.alicdn.com/t/font_1031158_u69w8yhxdu.ttf?t=1630033759944") format("truetype"); }
</style></defs><path d="M682.48 297.633333L332.666667 752.386667A149.333333 149.333333 0 0 1 214.306667 810.666667H64a21.333333 21.333333 0 0 1 0-42.666667h150.306667a107.333333 107.333333 0 0 0 84.546666-41.633333L648.666667 271.613333A149.333333 149.333333 0 0 1 767.026667 213.333333h141.473333l-48.92-48.913333a21.333333 21.333333 0 0 1 30.173333-30.173333l85.333334 85.333333a21.333333 21.333333 0 0 1 0 30.173333l-85.333334 85.333334a21.333333 21.333333 0 0 1-30.173333-30.173334l48.92-48.913333h-141.473333a107.333333 107.333333 0 0 0-84.546667 41.633333zM64 256h150.306667a107.333333 107.333333 0 0 1 84.546666 41.633333l109.26 142.04a21.333333 21.333333 0 0 0 33.82-26L332.666667 271.613333A149.333333 149.333333 0 0 0 214.306667 213.333333H64a21.333333 21.333333 0 0 0 0 42.666667z m825.753333 432.913333a21.333333 21.333333 0 0 0-30.173333 30.173334l48.92 48.913333h-141.473333a107.333333 107.333333 0 0 1-84.546667-41.633333L573.22 584.326667a21.333333 21.333333 0 0 0-33.82 26L648.666667 752.386667a149.333333 149.333333 0 0 0 118.36 58.28h141.473333l-48.92 48.913333a21.333333 21.333333 0 0 0 30.173333 30.173333l85.333334-85.333333a21.333333 21.333333 0 0 0 0-30.173333z" fill="#707070" p-id="1010"></path></svg>