<?xml version="1.0" standalone="no"?><!DOCTYPE svg PUBLIC "-//W3C//DTD SVG 1.1//EN" "http://www.w3.org/Graphics/SVG/1.1/DTD/svg11.dtd"><svg t="1651484918257" class="icon" viewBox="0 0 1024 1024" version="1.1" xmlns="http://www.w3.org/2000/svg" p-id="3803" xmlns:xlink="http://www.w3.org/1999/xlink" width="200" height="200"><defs><style type="text/css">@font-face { font-family: feedback-iconfont; src: url("//at.alicdn.com/t/font_1031158_u69w8yhxdu.woff2?t=1630033759944") format("woff2"), url("//at.alicdn.com/t/font_1031158_u69w8yhxdu.woff?t=1630033759944") format("woff"), url("//at.alicdn.com/t/font_1031158_u69w8yhxdu.ttf?t=1630033759944") format("truetype"); }
</style></defs><path d="M932.42 902.246667l-213.333333-213.333334A361.333333 361.333333 0 0 0 810.666667 448c0-200.293333-162.373333-362.666667-362.666667-362.666667S85.333333 247.706667 85.333333 448s162.373333 362.666667 362.666667 362.666667a361.333333 361.333333 0 0 0 240.913333-91.58l213.333334 213.333333a21.333333 21.333333 0 0 0 30.173333-30.173333zM128 448c0-176.733333 143.266667-320 320-320s320 143.266667 320 320-143.266667 320-320 320-320-143.266667-320-320z" fill="#707070" p-id="3804"></path></svg>